<?xml version="1.0" standalone="no"?>
<!DOCTYPE svg PUBLIC "-//W3C//DTD SVG 20010904//EN"
 "http://www.w3.org/TR/2001/REC-SVG-20010904/DTD/svg10.dtd">
<svg version="1.0" xmlns="http://www.w3.org/2000/svg"
 width="512.000000pt" height="512.000000pt" viewBox="0 0 512.000000 512.000000"
 preserveAspectRatio="xMidYMid meet">
<metadata>
Created by potrace 1.14, written by Peter Selinger 2001-2017
</metadata>
<g transform="translate(0.000000,512.000000) scale(0.100000,-0.100000)"
fill="#000000" stroke="none">
<path d="M1799 4589 c-96 -13 -198 -62 -266 -127 -88 -85 -170 -231 -199 -353
-33 -139 -42 -302 -24 -414 16 -95 20 -110 45 -184 102 -299 359 -483 599
-427 163 38 311 174 400 368 71 153 94 320 73 513 -16 141 -92 333 -174 440
-106 137 -278 207 -454 184z"/>
<path d="M3156 4589 c-137 -32 -301 -170 -372 -314 -35 -71 -57 -128 -70 -187
-2 -10 -6 -28 -9 -40 -19 -84 -24 -215 -12 -328 32 -312 220 -573 458 -635
211 -56 449 86 579 345 71 140 90 242 86 440 -3 121 -8 160 -30 233 -71 238
-214 407 -401 474 -49 18 -176 24 -229 12z"/>
<path d="M630 3547 c-74 -26 -137 -68 -182 -124 -40 -49 -92 -163 -108 -233
-16 -70 -21 -272 -9 -336 5 -27 12 -62 15 -78 18 -102 94 -267 161 -351 189
-234 468 -273 647 -89 43 44 70 86 117 186 4 9 16 54 25 99 22 111 15 311 -16
419 -52 182 -177 370 -305 460 -95 66 -233 85 -345 47z"/>
<path d="M4285 3561 c-194 -51 -368 -247 -439 -495 -48 -165 -52 -369 -10
-516 79 -275 340 -405 581 -289 177 85 321 309 369 574 20 115 13 300 -16 385
-50 150 -139 264 -245 316 -58 28 -181 41 -240 25z"/>
<path d="M2415 2810 c-22 -4 -53 -10 -70 -13 -54 -9 -179 -53 -240 -85 -119
-61 -165 -98 -425 -342 -74 -70 -151 -143 -171 -161 -301 -281 -501 -479 -538
-533 -38 -55 -86 -160 -96 -211 -5 -22 -10 -47 -12 -55 -3 -8 -5 -62 -5 -120
-1 -215 83 -414 239 -566 147 -143 317 -207 527 -197 137 6 174 12 396 70 217
56 187 48 305 74 97 20 306 29 390 16 174 -28 399 -78 502 -112 24 -8 57 -17
75 -20 18 -3 59 -10 90 -16 57 -10 262 -14 276 -5 4 2 24 7 46 10 60 10 169
59 240 110 288 206 403 637 249 940 -53 105 -78 133 -302 346 -21 19 -89 85
-152 145 -102 98 -259 246 -442 418 -167 156 -310 237 -504 288 -85 22 -307
33 -378 19z"/>
</g>
</svg>
