<?xml version="1.0" standalone="no"?>
<!DOCTYPE svg PUBLIC "-//W3C//DTD SVG 20010904//EN"
 "http://www.w3.org/TR/2001/REC-SVG-20010904/DTD/svg10.dtd">
<svg version="1.0" xmlns="http://www.w3.org/2000/svg"
 width="512.000000pt" height="512.000000pt" viewBox="0 0 512.000000 512.000000"
 preserveAspectRatio="xMidYMid meet">
<metadata>
Created by potrace 1.14, written by Peter Selinger 2001-2017
</metadata>
<g transform="translate(0.000000,512.000000) scale(0.100000,-0.100000)"
fill="#000000" stroke="none">
<path d="M2909 5104 c-15 -8 -35 -26 -45 -41 -16 -26 -18 -64 -19 -503 l-2
-475 -26 -85 c-70 -229 -67 -447 8 -660 30 -83 106 -230 130 -250 26 -21 17
-33 -60 -83 -145 -95 -328 -171 -465 -193 -25 -4 -56 -9 -70 -11 -14 -2 -205
-6 -425 -7 -435 -4 -485 -9 -635 -70 -69 -28 -212 -120 -249 -160 -14 -14 -30
-26 -36 -26 -15 0 -80 44 -132 89 l-39 33 28 28 c31 31 35 55 14 85 -46 68
-64 193 -41 280 28 102 138 203 242 222 96 17 169 2 265 -54 108 -63 267 -86
374 -55 143 43 279 172 330 315 22 60 24 73 29 157 11 216 -104 393 -321 495
-593 278 -1283 -47 -1451 -685 -22 -82 -26 -116 -26 -250 0 -135 4 -168 27
-255 72 -274 239 -492 498 -649 l28 -16 -20 -50 c-56 -141 -55 -118 -55 -1125
0 -1041 -6 -961 72 -1039 63 -63 88 -66 514 -66 261 0 386 4 403 11 14 7 29
24 34 38 9 26 11 27 93 26 74 -1 84 -3 87 -20 9 -44 28 -50 175 -53 77 -2 150
-1 162 2 37 9 52 56 48 146 -4 94 -23 156 -69 226 -54 81 -133 137 -232 163
l-43 12 19 27 c11 15 99 158 197 317 97 160 190 310 206 333 15 24 29 48 31
53 2 6 25 4 58 -5 117 -31 475 -138 480 -143 3 -2 5 -217 6 -476 1 -514 0
-505 60 -576 15 -19 51 -44 79 -57 50 -24 52 -24 443 -24 233 0 401 4 411 10
10 5 23 22 30 37 11 28 13 28 96 28 73 0 85 -2 85 -17 0 -9 12 -26 26 -37 25
-20 39 -21 291 -21 l264 0 24 24 c21 21 24 32 23 102 0 43 -6 98 -13 123 -48
182 -203 301 -392 301 l-64 0 6 43 c3 23 8 53 10 67 3 14 7 50 10 80 3 30 8
66 10 80 2 14 6 48 9 75 3 28 11 91 17 140 10 90 13 119 24 230 3 33 8 76 10
95 7 61 19 210 30 380 4 58 9 125 11 150 3 25 7 270 9 544 l4 499 29 31 c60
65 75 83 117 146 65 98 121 222 141 312 45 200 37 425 -21 587 -26 74 -27 90
-27 555 0 269 -4 460 -10 475 -23 63 -97 96 -158 71 -15 -6 -72 -64 -126 -128
-55 -63 -103 -120 -109 -126 -5 -6 -35 -40 -65 -76 -30 -36 -69 -80 -85 -98
l-30 -33 -66 20 c-200 62 -447 61 -628 -3 -24 -9 -46 -16 -50 -16 -4 0 -35 34
-71 76 -35 42 -68 81 -74 88 -17 18 -120 138 -147 171 -13 16 -46 52 -74 80
-43 43 -56 51 -90 52 -22 1 -52 -5 -66 -13z m899 -4166 l0 -252 25 -22 c14
-12 31 -24 38 -26 11 -4 13 -34 10 -141 l-1 -28 -27 19 c-47 32 -135 59 -203
61 -36 2 -66 4 -68 6 -4 4 21 119 73 340 20 83 38 161 40 175 13 68 22 85 56
102 19 9 39 17 45 18 9 0 12 -70 12 -252z"/>
</g>
</svg>
