<?xml version="1.0" standalone="no"?>
<!DOCTYPE svg PUBLIC "-//W3C//DTD SVG 20010904//EN"
 "http://www.w3.org/TR/2001/REC-SVG-20010904/DTD/svg10.dtd">
<svg version="1.0" xmlns="http://www.w3.org/2000/svg"
 width="512.000000pt" height="512.000000pt" viewBox="0 0 512.000000 512.000000"
 preserveAspectRatio="xMidYMid meet">
<metadata>
Created by potrace 1.14, written by Peter Selinger 2001-2017
</metadata>
<g transform="translate(0.000000,512.000000) scale(0.100000,-0.100000)"
fill="#000000" stroke="none">
<path d="M3393 5107 c-18 -6 -33 -15 -33 -19 0 -4 -6 -8 -13 -8 -18 0 -363
-350 -371 -376 -4 -12 -19 -27 -35 -34 -16 -6 -109 -93 -208 -193 -189 -192
-203 -213 -203 -302 0 -75 21 -116 104 -203 83 -86 111 -102 152 -84 21 10 28
6 74 -40 34 -35 49 -57 44 -67 -19 -50 -13 -63 79 -158 l91 -94 -480 -479
c-263 -264 -483 -489 -488 -501 -6 -13 -6 -31 1 -50 11 -27 8 -32 -38 -78 -47
-47 -51 -49 -84 -40 -22 6 -41 6 -52 0 -10 -5 -90 -83 -180 -172 l-163 -164
-262 261 c-279 276 -289 284 -383 284 -89 0 -110 -14 -302 -203 -100 -99 -187
-192 -193 -208 -7 -16 -22 -31 -34 -35 -11 -3 -101 -85 -198 -182 -205 -203
-224 -233 -213 -336 8 -78 28 -110 148 -230 l98 -99 -23 -26 c-13 -14 -29 -30
-35 -34 -17 -11 -63 -89 -69 -119 -10 -46 -4 -109 14 -151 11 -25 61 -84 126
-148 l106 -106 -79 -83 c-128 -132 -124 -184 22 -327 82 -81 98 -92 138 -98
64 -10 103 10 188 94 l72 71 107 -106 c131 -130 154 -143 247 -145 60 -1 108
21 174 78 l59 52 108 -105 c60 -58 122 -113 139 -122 43 -23 160 -22 205 2 46
24 375 351 390 387 7 15 24 32 39 39 40 16 367 348 390 395 26 53 24 166 -4
210 -10 17 -131 144 -269 282 l-251 253 743 742 742 742 253 -251 c154 -154
268 -259 294 -272 48 -24 114 -27 177 -9 33 9 77 47 223 191 100 99 187 192
193 207 7 16 24 33 39 40 36 14 363 345 385 388 9 18 19 59 22 91 8 86 -18
134 -144 259 -102 103 -103 104 -85 125 10 12 28 30 40 39 32 27 73 117 74
163 3 96 -19 132 -169 281 l-83 81 66 67 c101 104 116 137 96 214 -15 56 -181
216 -233 226 -67 12 -111 -8 -193 -90 l-76 -74 -107 106 c-122 121 -161 144
-247 144 -48 0 -70 -6 -111 -30 -29 -16 -60 -40 -71 -52 -45 -56 -43 -56 -145
45 -126 126 -158 146 -239 151 -35 3 -79 -1 -96 -7z"/>
</g>
</svg>
